<svg clip-rule="evenodd" fill-rule="evenodd" height="512" image-rendering="optimizeQuality" shape-rendering="geometricPrecision" text-rendering="geometricPrecision" viewBox="0 0 512 512" width="512" xmlns="http://www.w3.org/2000/svg" xmlns:xodm="http://www.corel.com/coreldraw/odm/2003"><g id="Layer_x0020_1"><path d="m315.36 242.51c-5.19-12-10.6-23.98-16.37-35.83 49.27-21.34 88.87-50.32 118.37-87.07 28.78 34.01 46.85 77.2 49.51 124.47-54.93-8.99-105.45-9.49-151.51-1.57zm58.02 189.27c-9.34-50.18-23.05-99.25-40.95-147.12 40.01-5.66 84.06-4.19 132.23 4.19-9.32 59.43-43.24 110.77-91.28 142.93zm-247.16-9.16c42-65.89 95.63-108.78 162.08-128.58 19.77 51.64 34.33 104.74 43.59 159.14-69.22 26.75-147 15.26-205.67-30.56zm-81.41-172.07c82.09-.12 152.91-9.55 212.25-28.22 4.97 10.13 9.73 20.31 14.28 30.56-72.07 22.52-131.49 68.71-177.83 138.24-33.36-40.04-49.97-88.6-48.7-140.58zm115.78-183.03c28.41 37.17 53.56 75.49 75.45 114.81-51.85 15.26-113.72 23.1-185.27 23.59 14.78-60.48 55.5-110.78 109.82-138.4zm224.33 21.22c-25.7 33.14-61.18 59.35-106.39 78.49-21.66-39.69-46.42-78.41-74.39-115.99 63.32-16.15 128.82-2.63 180.78 37.5zm-128.93-88.74c-141.38 0-255.99 114.62-255.99 256s114.61 256 255.99 256c141.4 0 256.01-114.62 256.01-256s-114.62-256-256.01-256z"/></g></svg>