<svg id="Capa_1" enable-background="new 0 0 512 512" height="512" viewBox="0 0 512 512" width="512" xmlns="http://www.w3.org/2000/svg"><g><path d="m456 160h-60v-20c0-77.196-62.804-140-140-140s-140 62.804-140 140v20h-60c-11.046 0-20 8.954-20 20v232c0 55.14 44.859 100 100 100h240c55.141 0 100-44.86 100-100v-232c0-11.046-8.954-20-20-20zm-300-20c0-55.14 44.859-100 100-100s100 44.86 100 100v20h-200zm280 272c0 33.084-26.916 60-60 60h-240c-33.084 0-60-26.916-60-60v-212h40v60c0 11.046 8.954 20 20 20s20-8.954 20-20v-60h200v60c0 11.046 8.954 20 20 20s20-8.954 20-20v-60h40z"/></g></svg>